<svg width="1440" height="1044" fill="none" xmlns="http://www.w3.org/2000/svg"><mask id="a" style="mask-type:alpha" maskUnits="userSpaceOnUse" x="0" y="0" width="1440" height="1044"><path fill="#000" d="M0 0h1440v1044H0z"/></mask><g mask="url(#a)"><path fill="#FF6C0C" d="M0 0h1440v895.716H0z"/><path fill-rule="evenodd" clip-rule="evenodd" d="M-291-211.405h2129V1210.32H-291V-211.405z" fill="#000F13"/><path fill-rule="evenodd" clip-rule="evenodd" d="M608.808 499.46V321.744l153.656 88.858-153.656 88.858z" fill="#001E26"/><path fill-rule="evenodd" clip-rule="evenodd" d="M762.464 410.602V232.886l-153.656-88.851v177.709l153.656 88.858z" fill="#002C39"/><path fill-rule="evenodd" clip-rule="evenodd" d="M762.464 410.603V232.886l153.635 88.858-153.635 88.859z" fill="#001E26"/><path fill-rule="evenodd" clip-rule="evenodd" d="M916.099 677.177V499.46l-153.635-88.858v177.709l153.635 88.866z" fill="#001E26"/><path fill-rule="evenodd" clip-rule="evenodd" d="M916.099 499.46V321.744l-153.635 88.858 153.635 88.858z" fill="#00161C"/><path fill-rule="evenodd" clip-rule="evenodd" d="M762.464 232.886v-444.283H608.808v355.432l153.656 88.851z" fill="#001E26"/><path fill-rule="evenodd" clip-rule="evenodd" d="M1223.4 677.177V499.46L916.098 321.744V499.46L1223.4 677.177z" fill="#002C39"/><path fill-rule="evenodd" clip-rule="evenodd" d="M1069.75 766.028l153.65-88.851L916.098 499.46v177.717l153.652 88.851z" fill="#00161C"/><path fill-rule="evenodd" clip-rule="evenodd" d="M916.098 854.886V677.177l153.652 88.851-153.652 88.858z" fill="#000F13"/><path fill-rule="evenodd" clip-rule="evenodd" d="M1377.05 766.027V588.311l-153.65 88.866-153.65 88.85v177.717l307.3-177.717z" fill="#00161C"/><path fill-rule="evenodd" clip-rule="evenodd" d="M1069.75 766.027l153.65 88.859-153.65 88.858-153.652-88.858 153.652-88.859z" fill="#001E26"/><path fill-rule="evenodd" clip-rule="evenodd" d="M1377.05 766.028l153.64-88.851 153.66 88.851-153.66 88.858-153.64 88.858-153.65-88.858 153.65-88.858z" fill="#003B4C"/><path fill-rule="evenodd" clip-rule="evenodd" d="M1223.4 854.886V677.177l153.65 88.851-153.65 88.858z" fill="#002C39"/><path fill-rule="evenodd" clip-rule="evenodd" d="M1223.4 1032.6V854.886l-153.65 88.858 153.65 88.856z" fill="#001E26"/><path fill-rule="evenodd" clip-rule="evenodd" d="M1223.4 1032.6V854.886l153.65 88.858-153.65 88.856zm307.29-177.714V677.177l-153.64 88.851 153.64 88.858z" fill="#002C39"/><path fill-rule="evenodd" clip-rule="evenodd" d="M1377.05 766.028V588.311L1223.4 499.46v177.717l153.65 88.851z" fill="#001E26"/><path fill-rule="evenodd" clip-rule="evenodd" d="M1223.4 499.46V144.035L916.098 321.744 1223.4 499.46z" fill="#000F13"/><path fill-rule="evenodd" clip-rule="evenodd" d="M1069.75 55.17l153.65 88.865-307.302 177.709V144.035l153.652-88.866z" fill="#001E26"/><path fill-rule="evenodd" clip-rule="evenodd" d="M1223.4 144.035V-33.681l-153.65 88.85 153.65 88.866z" fill="#002C39"/><path fill-rule="evenodd" clip-rule="evenodd" d="M1223.4 144.035V-33.681l153.65 88.85-153.65 88.866z" fill="#000F13"/><path fill-rule="evenodd" clip-rule="evenodd" d="M1377.05 232.886V55.169l-153.65 88.866 153.65 88.851z" fill="#002C39"/><path fill-rule="evenodd" clip-rule="evenodd" d="M1377.05 410.602V232.886l-153.65-88.851V499.46l153.65-88.858z" fill="#001E26"/><path fill-rule="evenodd" clip-rule="evenodd" d="M1377.05 410.602V232.886l307.3-177.717v177.717l-307.3 177.716zm0-355.432v-266.567h153.64v177.716l-153.64 88.85z" fill="#002C39"/><path fill-rule="evenodd" clip-rule="evenodd" d="M1069.75 55.17l153.65-88.85 153.65 88.85v-266.567H1223.4L916.098-33.681l153.652 88.85z" fill="#003B4C"/><path fill-rule="evenodd" clip-rule="evenodd" d="M916.099 321.744V144.035L1069.75 55.17 916.099-33.68v-177.717H762.464v444.283l153.635 88.858z" fill="#000F13"/><path fill-rule="evenodd" clip-rule="evenodd" d="M608.808 499.461V321.744L-291-198.616v177.709L608.808 499.46z" fill="#00161C"/><path fill-rule="evenodd" clip-rule="evenodd" d="M608.808 321.745V144.036L-5.796-211.397H-291v12.781l899.808 520.361z" fill="#001E26"/><path fill-rule="evenodd" clip-rule="evenodd" d="M608.808 144.035v-355.432H-5.796l614.604 355.432z" fill="#002C39"/><path fill-rule="evenodd" clip-rule="evenodd" d="M1377.05 232.886V55.17l153.64-88.85v-177.717h153.66V55.17l-307.3 177.716z" fill="#003B4C"/><path fill-rule="evenodd" clip-rule="evenodd" d="M1377.05 1121.46l-153.65-88.86 307.29-177.714V1032.6l-153.64 88.86z" fill="#001E26"/><path fill-rule="evenodd" clip-rule="evenodd" d="M1377.05 1210.32v-88.86l-153.65-88.86v177.72h153.65z" fill="#000F13"/><path fill-rule="evenodd" clip-rule="evenodd" d="M1377.05 1210.32v-88.86l153.64-88.86v177.72h-153.64z" fill="#002C39"/><path fill-rule="evenodd" clip-rule="evenodd" d="M1530.69 499.46V321.744l-153.64 88.858v355.425l153.64-88.85L1838 854.885V677.177L1530.69 499.46z" fill="#000F13"/><path fill-rule="evenodd" clip-rule="evenodd" d="M1223.4 1032.6v177.72H916.098L1223.4 1032.6z" fill="#001E26"/><path fill-rule="evenodd" clip-rule="evenodd" d="M1069.75 943.744l153.65 88.856-307.302 177.72h-307.29l460.942-266.576z" fill="#00161C"/><path fill-rule="evenodd" clip-rule="evenodd" d="M916.098 854.886l153.652 88.858-460.943 266.576H301.502l614.596-355.434z" fill="#001E26"/><path fill-rule="evenodd" clip-rule="evenodd" d="M1377.05 588.311V410.602L1223.4 499.46l153.65 88.851z" fill="#002C39"/><path d="M46 0l1394 802M355 0l1088 626m-1.17-81.037L580.692 1043.81" stroke="#E2CC00" stroke-width="1.5"/></g></svg>