<svg version="1.1" id="Layer_1" xmlns="http://www.w3.org/2000/svg" x="0" y="0" viewBox="0 0 208 230" xml:space="preserve"><style>.st1{fill:#003b4c}</style><path d="M65 58h40v120H65z" fill="#ff6c0c"/><path class="st1" d="M105 34h40v144h-40z"/><path d="M109 177.4c0-2.2-1.8-4-4-4s-4 1.8-4 4c0 2 1.4 3.6 3.2 3.9v49.1h1.5v-49.1c1.9-.3 3.3-1.9 3.3-3.9z" fill="#e2cc00"/><path class="st1" d="M107.7 22.9h5.3l-2.7-5.3-2.6 5.3zm15.8-5.2c0 .4-.1.8-.2 1.1-.1.4-.3.7-.6 1.1-.2.3-.5.7-.8 1-.3.3-.6.7-1 1l-.6.6c-.2.3-.5.5-.7.8-.2.3-.4.5-.5.8-.1.3-.2.5-.2.6h5.1V26h-6.8v-.4c0-.5.1-1 .3-1.4l.6-1.2c.3-.4.6-.7.9-1.1l1-1 .8-.8c.3-.3.5-.5.6-.8.2-.3.3-.5.4-.8.1-.3.2-.6.2-.8 0-.3-.1-.6-.2-.8-.1-.2-.2-.4-.4-.6-.2-.2-.4-.3-.6-.3-.2-.1-.5-.1-.7-.1-.3 0-.6 0-.9.1-.3.1-.5.2-.7.3-.2.1-.4.2-.5.4-.1.1-.3.2-.3.3l-.7-1 .4-.4c.2-.2.4-.3.7-.4.3-.1.6-.3.9-.4s.7-.1 1.1-.1c1.2 0 2 .3 2.6.8.5.4.8 1.2.8 2.2zm9 0c0 .4-.1.8-.2 1.1-.1.4-.3.7-.6 1.1-.2.3-.5.7-.8 1s-.6.7-1 1l-.6.6c-.2.3-.5.5-.7.8s-.4.5-.5.8c-.1.3-.2.5-.2.6h5.1V26h-6.8v-.4c0-.5.1-1 .3-1.4l.6-1.2c.3-.4.6-.7.9-1.1l1-1 .8-.8c.3-.3.5-.5.6-.8.2-.3.3-.5.5-.8.1-.3.2-.6.2-.8 0-.3-.1-.6-.2-.8-.1-.2-.2-.4-.4-.6-.2-.2-.4-.3-.6-.3-.2-.1-.5-.1-.7-.1-.3 0-.6 0-.9.1-.3.1-.5.2-.7.3-.2.1-.4.2-.5.4-.1.1-.3.2-.3.3l-.7-1 .4-.4c.2-.2.4-.3.7-.4.3-.1.6-.3.9-.4.3-.1.7-.1 1.1-.1 1.2 0 2 .3 2.6.8.4.4.7 1.2.7 2.2zm3.1 8.3h-1.3l6.8-11.1h1.3L135.6 26zm-1.4-8.6c0-.9.2-1.6.5-2.1s.8-.7 1.4-.7 1.1.2 1.4.7c.3.5.5 1.2.5 2.1 0 .9-.2 1.6-.5 2.1s-.8.7-1.4.7-1.1-.2-1.4-.7c-.3-.5-.5-1.2-.5-2.1zm2.8 0c0-.5-.1-1-.2-1.3-.1-.3-.4-.5-.6-.5s-.5.2-.6.5c-.1.3-.2.8-.2 1.3s.1 1 .2 1.3c.2.3.4.5.6.5s.5-.2.6-.5.2-.7.2-1.3zm1.7 6c0-.9.2-1.6.5-2.1s.8-.7 1.4-.7 1.1.2 1.4.7c.3.5.5 1.2.5 2.1s-.2 1.6-.5 2.1-.8.7-1.4.7-1.1-.2-1.4-.7c-.4-.4-.5-1.1-.5-2.1zm2.8 0c0-.5-.1-1-.2-1.3-.1-.3-.4-.5-.6-.5s-.5.2-.6.5c-.1.3-.2.8-.2 1.3s.1 1 .2 1.3c.1.3.4.5.6.5s.5-.2.6-.5c.1-.3.2-.7.2-1.3z"/></svg>