<svg xmlns="http://www.w3.org/2000/svg"><symbol viewBox="0 0 90 90" id="career" xmlns="http://www.w3.org/2000/svg"><path d="M58.7 40.3c0 .3-.1.6-.3.8-.2.2-.5.3-.8.3h-4.3c-.3 0-.6-.1-.8-.3-.2-.2-.3-.5-.3-.8 0-.3.1-.6.3-.8.2-.2.5-.3.8-.3h1.1v-6.5h-1.1c-.3 0-.6-.1-.8-.3-.2-.2-.3-.5-.3-.8s.1-.6.3-.8c.2-.2.5-.3.8-.3h2.2c.3 0 .6.1.8.3.2.2.3.4.3.7v7.7h1.1c.3 0 .6.1.8.3.1.3.2.5.2.8zm-4.8-13c0-.9.7-1.6 1.6-1.6s1.6.7 1.6 1.6c0 .9-.7 1.6-1.6 1.6s-1.6-.7-1.6-1.6zm15.9-5.5H39.9v16.4c1.9 1.7 3 4.3 3 7.2v.6h6.4v6l6.4-6h14.1V21.8zM39.6 50.7c1.2-1.4 1.9-3.3 1.9-5.3 0-4.2-3-7.7-6.7-7.7s-6.7 3.5-6.7 7.7c0 2.1.7 4 1.9 5.3-5.5 2.3-9.2 7.6-9.2 11.3 0 1.2.5 3 3 4.3 2.5 1.3 6 1.8 11 1.8s8.7-.6 11-1.8c2.5-1.3 3-3.1 3-4.3 0-3.8-3.6-9-9.2-11.3z"/></symbol><symbol id="close-x" viewBox="0 0 16 16" xml:space="preserve" xmlns="http://www.w3.org/2000/svg"><style>.bst0{fill-rule:evenodd;clip-rule:evenodd}</style><path class="bst0" d="M8 0C3.6 0 0 3.6 0 8s3.6 8 8 8 8-3.6 8-8-3.6-8-8-8zm0 14.2c-3.4 0-6.2-2.8-6.2-6.2 0-3.4 2.8-6.2 6.2-6.2s6.2 2.8 6.2 6.2c0 3.4-2.8 6.2-6.2 6.2z"/><path class="bst0" d="M11 5c-.3-.3-.9-.3-1.3 0L8 6.7 6.3 5c-.4-.3-1-.3-1.3 0-.3.3-.3.9 0 1.3L6.7 8 5 9.7c-.3.3-.3.9 0 1.3.3.3.9.3 1.3 0L8 9.3 9.7 11c.3.3.9.3 1.3 0 .3-.3.3-.9 0-1.3L9.3 8 11 6.3c.3-.4.3-1 0-1.3z"/></symbol><symbol viewBox="0 0 90 90" id="cocurricular" xmlns="http://www.w3.org/2000/svg"><path d="M45 18.7l8 16.2 17.9 2.6-13 12.7L61 68l-16-8.4L29 68l3.1-17.8-13-12.6L37 34.9l8-16.2z"/></symbol><symbol viewBox="0 0 90 90" id="fellowships" xmlns="http://www.w3.org/2000/svg"><path d="M39 59.7c-1.2 0-2.2 1-2.2 2.2s1 2.2 2.2 2.2h12c1.2 0 2.2-1 2.2-2.2s-1-2.2-2.2-2.2H39zm11.4-1.5v-2.5c0-1.7.9-3.3 2.4-4.1 7.5-4.1 10.3-13.5 6.2-21-2.7-5-7.9-8.1-13.6-8.1h-.7c-8.6 0-15.5 6.9-15.5 15.5 0 5.7 3.1 10.9 8.1 13.6 1.5.8 2.4 2.4 2.4 4.1v2.5h4.6v-9L39 43.4c-.3-.3-.3-.8 0-1.1.3-.3.8-.3 1.1 0l5 5.4 5-5.4c.3-.3.7-.3 1 0 .3.3.3.8 0 1.1l-5.2 5.7v9h4.5zm-1.2 7.5c0 2.3-1.9 4.2-4.2 4.2s-4.2-1.9-4.2-4.2h8.4zM66 39.9h5v2h-5zm-3.969 9.203l1-1.732 4.763 2.75-1 1.732zm1.216-17.584l4.763-2.752 1 1.732-4.763 2.751zM19 39.9h5v2h-5zm3.248 10.2l4.677-2.7 1 1.733-4.677 2.699zm-1.309-19.53l1-1.731 4.763 2.75-1 1.732z"/></symbol><symbol viewBox="0 0 90 90" id="health" xmlns="http://www.w3.org/2000/svg"><path d="M70.7 33.6c-.7-1.7-1.8-3.3-3.1-4.7-1.3-1.3-2.9-2.4-4.7-3.1-1.7-.7-3.6-1.1-5.5-1.1-4.5 0-9.6 2.1-12.3 5.3-2.7-3.2-7.8-5.3-12.4-5.3-3.8 0-7.5 1.5-10.2 4.2-2.7 2.7-4.2 6.4-4.2 10.2 0 13.5 22.3 27.5 26.2 29.9.2.1.4.2.6.2.2 0 .4-.1.6-.2 3.9-2.3 26.2-16.3 26.2-29.9-.1-1.8-.5-3.7-1.2-5.5zM53.5 49h-5.2v5.2h-6.6V49h-5.2v-6.6h5.2v-5.2h6.6v5.2h5.2V49z"/></symbol><symbol viewBox="0 0 90 90" id="scholarship" xmlns="http://www.w3.org/2000/svg"><path d="M45.6 41.7c5.1-.1 10.1.6 15 2.2V36c-3.6-1.5-9.1-2.4-15-2.4s-11.4.9-14.9 2.4v7.9c4.8-1.6 9.9-2.3 14.9-2.2z"/><path d="M75.8 30.1L45.7 21l-30.1 9.1L29.2 35c10.6-4 22.3-4 33 0l5.6-2v8.7h2v-9.4l6-2.2zM46 69.5c6.7 0 12.2-5.5 12.2-12.2 0-6.7-5.5-12.2-12.2-12.2-6.7 0-12.2 5.5-12.2 12.2.1 6.7 5.5 12.2 12.2 12.2z"/></symbol></svg>