<svg class="PPFA-logo" data-name="Layer 1" xmlns="http://www.w3.org/2000/svg" viewBox="0 0 202.21 50.49"><path class="cls-1" d="M37.64 16.22V34.7a11.42 11.42 0 01-11.42 11.43H14.56l2.22-5.08h9.44a6.36 6.36 0 006.35-6.35V21.33h-13a6.36 6.36 0 00-6.35 6.35v22.38H8.17V27.65a11.43 11.43 0 0111.44-11.43h7.88V5.84h-9.72a12.71 12.71 0 00-12.7 12.69v31.53H0V18.53A17.76 17.76 0 0117.77.76h14.8v15.46zm90.22 2.32a19.07 19.07 0 01-4.35.64c-2.7 0-4-.67-4-4h10c.27-7.5-1.85-9.17-6.75-9.17-4.49 0-7.2 1.91-7.2 8.11s3 8.24 7.51 8.24a19.75 19.75 0 005.41-.85zm-8.33-6.21c.24-2.55 1.06-3.32 3.44-3.32 2.15 0 2.94.58 3.07 3.32h-6.51m-72.8 9.61v-7h7.12c4.07 0 5.8-3.28 5.8-6.93 0-4.13-1.43-7.26-5.9-7.26h-11v21.19zm0-10.33V4.16h6c1.64 0 2.52 1.25 2.52 3.83 0 2.4-.94 3.62-2.61 3.62zM65.3 0h-3.77v17.75a6.91 6.91 0 001.64 4.92l3.31-1.43a5.48 5.48 0 01-1.18-3.64zm16.23 12.03c0-4.61-2.1-6-6.69-6a25.47 25.47 0 00-6.17.82l.7 3.1a14.43 14.43 0 014.68-.76c3.22 0 3.86.67 3.86 3.37a18.5 18.5 0 00-3.83-.43c-3.62 0-6.08.71-6.08 5.08 0 4 1.64 5.17 6.54 5.17a21.58 21.58 0 007-1.22zm-3.62 6.93a9.72 9.72 0 01-3.1.52c-2.28 0-2.86-.34-2.86-2.43s.76-2.22 2.89-2.22a15.58 15.58 0 013.07.27zm9.72-9.18a10.63 10.63 0 012.77-.36c2.67 0 3.31.85 3.31 4.28v8.24h3.77v-8.61c0-5.56-1.94-7.29-6.29-7.29a22.67 22.67 0 00-7.33 1.29v14.61h3.77zm15.94 0a10.57 10.57 0 012.77-.36c2.67 0 3.31.85 3.31 4.28v8.24h3.77v-8.61c0-5.56-1.95-7.29-6.29-7.29a22.67 22.67 0 00-7.33 1.29v14.61h3.77zM145.45 0h-3.77v6.9a7.2 7.2 0 00-3.7-.88c-4.14 0-6.72 1.91-6.72 8.17s2.34 8.14 7.45 8.14a20.86 20.86 0 006.74-1.12zm-3.77 18.69a10 10 0 01-3 .46c-2.68 0-3.56-.8-3.56-5 0-3.86.85-4.92 3.49-4.92 1.71 0 3 .57 3 1.48zM46.73 50.07v-7h7.12c4.07 0 5.8-3.28 5.8-6.93 0-4.13-1.43-7.26-5.9-7.26h-11v21.19zm0-10.33v-7.41h6c1.64 0 2.52 1.25 2.52 3.83 0 2.4-.94 3.62-2.61 3.62zm27.72.42c0-4.62-2.1-6-6.69-6a25.44 25.44 0 00-6.17.83l.7 3.09a14.71 14.71 0 014.68-.75c3.22 0 3.86.66 3.86 3.37a18.5 18.5 0 00-3.83-.43c-3.62 0-6.08.7-6.08 5.08 0 4 1.64 5.16 6.54 5.16a21.57 21.57 0 007-1.21zm-3.62 6.93a10 10 0 01-3.1.52c-2.28 0-2.86-.34-2.86-2.43s.76-2.22 2.89-2.22a15.58 15.58 0 013.07.27zm5.96 2.98h3.76V39.33c0-1.12 1.68-1.73 3.56-1.73a9.84 9.84 0 012 .21v-3.57a14.24 14.24 0 00-1.57-.1c-2.22 0-3.41.76-4 1.62V34.6h-3.75zM99 46.66a18.64 18.64 0 01-4.35.65c-2.7 0-4-.67-4-4h10c.27-7.51-1.85-9.18-6.75-9.18-4.49 0-7.2 1.92-7.2 8.12 0 6.35 3 8.23 7.5 8.23a19.39 19.39 0 005.42-.85zm-8.33-6.22c.24-2.56 1.07-3.32 3.44-3.32 2.15 0 2.94.58 3.06 3.32h-6.5m15.7-2.53a10.63 10.63 0 012.77-.36c2.67 0 3.31.85 3.31 4.29v8.23h3.77v-8.63c0-5.56-1.94-7.3-6.29-7.3a22.55 22.55 0 00-7.32 1.34v14.59h3.76zm22.58-.03V34.6h-5.14v-4.16l-3.76 1.55v2.61h-2.59v3.28h2.59v7c0 4.59 1.7 5.62 5.16 5.62a13.5 13.5 0 004.25-.7l-.67-3a8.64 8.64 0 01-2.64.42c-1.82 0-2.34-.79-2.34-2.7v-6.64zm15.46 3.28c0-5.77-2-7-5.59-7a10 10 0 00-4.25 1.07v-7.1h-3.77v21.94h3.77V38.92c0-.91 1.43-1.37 3-1.37 2.42 0 3.09 1.37 3.09 3.92v8.6h3.77v-8.91m1.74 1.1c0 6.35 2.43 8.23 7.36 8.23s7.41-1.88 7.41-8.23-2.46-8.12-7.41-8.12-7.36 1.8-7.36 8.12m3.89.06c0-4.44.82-5.14 3.47-5.14s3.52.7 3.52 5.14c0 4.29-.82 5.14-3.52 5.14s-3.47-.85-3.47-5.14m12.6-.06c0 6.35 2.43 8.23 7.35 8.23s7.41-1.88 7.41-8.23-2.46-8.12-7.41-8.12-7.35 1.8-7.35 8.12m3.88.06c0-4.44.82-5.14 3.47-5.14s3.52.7 3.52 5.14c0 4.29-.82 5.14-3.52 5.14s-3.47-.85-3.47-5.14m26.74-14.19h-3.77v6.9a7.23 7.23 0 00-3.71-.89c-4.13 0-6.72 1.92-6.72 8.18s2.34 8.17 7.45 8.17a20.87 20.87 0 006.75-1.16zm-3.77 18.69a10 10 0 01-3 .45c-2.68 0-3.56-.79-3.56-5 0-3.86.86-4.92 3.5-4.92 1.7 0 3 .57 3 1.48zm9.83-18.73a2.87 2.87 0 11-2.87 2.86 2.86 2.86 0 012.87-2.86zm0 5a2.12 2.12 0 10-2-2.12 2 2 0 002 2.1zm-1.17-3.7h1.22c.82 0 1.21.35 1.21 1a.83.83 0 01-.8.88l.79 1.28h-.75l-.67-1.22h-.27v1.2h-.73zm.7 1.33h.52c.3 0 .51 0 .51-.39s-.33-.38-.58-.38h-.45z"/></svg>