<svg version="1.1" id="Layer_1" xmlns="http://www.w3.org/2000/svg" x="0" y="0" viewBox="0 0 208 230" xml:space="preserve"><style>.st1{fill:#e2cc00}</style><path d="M19.4 59.5h186.1L193.1 141H7l12.4-81.5z" fill="#f0f4f5"/><path class="st1" d="M190.1 144H4l12.4-81.5h186.1l-.1.6-12.3 80.9zM5.2 143h184.1l12.1-79.5H17.2L5.2 143z"/><path d="M27 106.9h-6.8c.3 3.8 1.5 6.6 3.5 8.6s4.8 3.1 8.4 3.3v4.1h2.8v-4.1c2.4-.2 4.4-.6 5.9-1.4 1.5-.8 2.8-1.7 3.6-2.7.9-1 1.6-2.1 1.9-3.1.4-1.1.5-2 .5-2.7 0-.8-.1-1.7-.2-2.7-.1-1-.4-2-1.1-3.1-.6-1-1.6-2-2.8-2.9-1.3-1-3.1-1.8-5.5-2.4-.4-.1-.9-.2-1.3-.3l-1.2-.3v-8.5c1.1 0 2 .4 2.8 1.3.8.9 1.2 2 1.2 3.3h6.8c-.1-1.7-.4-3.1-1.1-4.3-.6-1.2-1.4-2.2-2.4-3-1-.8-2.1-1.5-3.4-1.9-1.2-.5-2.6-.8-4-1v-3.7h-2.8v3.7c-1.4.1-2.8.4-4.2.9-1.3.4-2.5 1.1-3.6 2-1 .8-1.9 1.9-2.5 3.1-.6 1.2-.9 2.7-.9 4.3 0 1.6.3 2.9.8 4s1.3 2 2.2 2.7c.9.7 2 1.3 3.1 1.7 1.2.4 2.3.8 3.5 1.1.3.1.6.1.9.2.3.1.5.1.7.2v10c-1.5-.3-2.7-1-3.7-2s-1.2-2.6-1.1-4.4zm7.9 6.3V104c1.9.5 3.2 1.1 4 1.7.8.6 1.2 1.5 1.2 2.8 0 .8-.2 1.4-.5 2-.3.5-.7 1-1.2 1.4-.5.4-1 .7-1.7.9-.6.2-1.2.3-1.8.4zm-2.8-24.7v7.8c-1.5-.4-2.6-.8-3.3-1.4-.7-.6-1-1.4-1-2.4 0-.7.1-1.2.3-1.7.3-.5.6-.9 1-1.2.4-.4.9-.6 1.4-.8.5-.2 1-.3 1.6-.3zM64.7 118V84.4h-5.4c-.2 1.3-.6 2.4-1.2 3.2-.6.9-1.4 1.6-2.3 2.1-.9.5-1.9.9-3 1.1-1.1.2-2.2.3-3.4.2v5.1h8.4V118h6.9zm20.6-17.4c.9 0 1.6.2 2.3.6.7.4 1.2.8 1.6 1.4.4.6.7 1.2.9 2 .2.7.3 1.5.3 2.3 0 .8-.1 1.5-.3 2.3s-.6 1.4-1 2c-.4.6-1 1-1.6 1.4-.6.4-1.3.5-2.2.5-.9 0-1.6-.2-2.3-.5-.7-.4-1.2-.8-1.7-1.4-.4-.6-.8-1.3-1.1-2-.2-.8-.3-1.5-.3-2.3 0-.8.1-1.6.3-2.4.2-.8.6-1.4 1-2 .4-.6 1-1 1.7-1.3.7-.4 1.5-.6 2.4-.6zm4.9-7.6h6.5c-.2-1.5-.6-2.8-1.2-4-.6-1.2-1.4-2.1-2.4-2.9-1-.8-2.1-1.4-3.3-1.8-1.2-.4-2.6-.6-4-.6-2.4 0-4.4.5-6.1 1.6s-3 2.4-4.1 4.1c-1.1 1.7-1.8 3.5-2.3 5.6-.5 2.1-.7 4.2-.7 6.2 0 2.1.2 4.3.6 6.3.4 2 1.1 3.9 2.1 5.5s2.3 3 4 4c1.7 1 3.8 1.5 6.3 1.5 1.8 0 3.4-.3 4.8-.9 1.4-.6 2.7-1.5 3.7-2.6 1.1-1.1 1.9-2.4 2.4-3.9.6-1.5.9-3.1.9-4.8 0-1.3-.2-2.7-.6-4a9.4 9.4 0 00-2-3.5c-1-1.1-2.1-1.9-3.5-2.5-1.4-.6-2.8-1-4.2-1-1.6 0-3.1.3-4.3.9-1.2.6-2.3 1.5-3.3 2.9l-.1-.1c0-.9.2-2 .4-3.2s.6-2.3 1.1-3.3c.5-1.1 1.1-1.9 1.9-2.6.8-.7 1.9-1.1 3.1-1.1 1.2 0 2.2.4 3 1.2.6.9 1.1 1.9 1.3 3zm10 17.6v7.4h3.5c0 .5 0 1-.2 1.5s-.4 1-.7 1.3c-.3.4-.7.8-1.2 1.1-.4.3-.9.5-1.3.6v3.5c1-.2 2-.5 2.9-.9.9-.4 1.7-1 2.4-1.6.7-.7 1.2-1.5 1.6-2.4.4-.9.6-1.9.6-3v-7.4h-7.6zm34.3-20.3v-5.9h-22.9v6.3h15.9c-3.2 3.9-5.8 8.1-7.8 12.8-2 4.6-3.1 9.5-3.5 14.5h7.3c0-2.2.3-4.7.8-7.2.5-2.6 1.2-5.2 2.1-7.7.9-2.5 2.1-4.9 3.4-7.2 1.4-2.2 3-4.1 4.7-5.6zm9.2 3.2c0-.8.1-1.4.4-2 .3-.6.7-1.1 1.2-1.4.5-.4 1-.7 1.6-.9.6-.2 1.3-.3 2-.3 1.1 0 1.9.2 2.5.5.7.3 1.2.7 1.5 1.2.4.5.6 1 .8 1.5.1.5.2 1 .2 1.4 0 1.4-.5 2.5-1.4 3.3-1 .7-2.2 1.1-3.6 1.1s-2.6-.4-3.6-1.1c-1.1-.7-1.6-1.8-1.6-3.3zm-6.2-.6c0 1.7.4 3.1 1.2 4.4s2.1 2.1 3.7 2.5v.1c-2 .5-3.6 1.4-4.7 2.9-1.1 1.4-1.6 3.2-1.6 5.4 0 1.8.4 3.4 1.1 4.7.7 1.3 1.7 2.4 2.9 3.3 1.2.9 2.6 1.5 4.1 1.9 1.5.4 3.1.6 4.8.6 1.6 0 3.1-.2 4.6-.6 1.5-.4 2.8-1.1 4-2 1.2-.9 2.1-2 2.8-3.3.7-1.3 1.1-2.9 1.1-4.7 0-2.1-.5-3.9-1.6-5.3-1.1-1.5-2.6-2.4-4.7-2.9v-.1c1.6-.5 2.8-1.4 3.6-2.7.8-1.2 1.2-2.7 1.2-4.4 0-.8-.2-1.8-.6-2.8-.4-1.1-1-2-1.9-2.9-.9-.9-2-1.7-3.5-2.4-1.4-.6-3.2-1-5.3-1-1.4 0-2.7.2-4.1.6-1.3.4-2.6 1-3.6 1.7-1.1.8-1.9 1.7-2.6 2.9s-.9 2.6-.9 4.1zm5.4 14.9c0-1.7.6-3 1.7-3.9 1.2-.9 2.6-1.4 4.2-1.4.8 0 1.5.1 2.2.4.7.3 1.3.6 1.8 1.1.5.5 1 1.1 1.2 1.7.3.6.5 1.4.5 2.2 0 .8-.1 1.6-.4 2.3-.3.7-.7 1.3-1.2 1.8s-1.1.9-1.8 1.2c-.7.3-1.4.4-2.3.4-.8 0-1.6-.1-2.3-.4-.7-.3-1.4-.7-1.9-1.2s-.9-1.1-1.2-1.8c-.3-.7-.5-1.5-.5-2.4zM186 90.3v-5.9h-23v6.3h16c-3.2 3.9-5.8 8.1-7.8 12.8-2 4.6-3.1 9.5-3.5 14.5h7.3c0-2.2.3-4.7.8-7.2.5-2.6 1.2-5.2 2.1-7.7.9-2.5 2.1-4.9 3.4-7.2 1.3-2.2 2.9-4.1 4.7-5.6z" fill="#003b4c"/><path class="st1" d="M108 143.1c0-2.2-1.8-4-4-4s-4 1.8-4 4c0 2 1.4 3.6 3.2 3.9v83.1h1.5V147c1.9-.3 3.3-1.9 3.3-3.9z"/></svg>