<svg version="1.1" id="Layer_1" xmlns="http://www.w3.org/2000/svg" x="0" y="0" viewBox="0 0 208 230" xml:space="preserve"><style>.st1{fill:#003b4c}</style><path d="M104 194c-49.1 0-89-39.9-89-89s39.9-89 89-89 89 39.9 89 89-39.9 89-89 89zm0-176.5c-48.2 0-87.5 39.3-87.5 87.5s39.3 87.5 87.5 87.5 87.5-39.3 87.5-87.5-39.3-87.5-87.5-87.5z" fill="#ff6c0c"/><path class="st1" d="M104 209C46.7 209 0 162.3 0 105S46.7 1 104 1v30c-40.8 0-74 33.2-74 74s33.2 74 74 74c18.7 0 36.6-7 50.3-19.8 13.7-12.7 22-29.8 23.4-48.3l29.9 2.4c-2 26-13.7 50.2-32.9 68-19.2 17.8-44.4 27.7-70.7 27.7z"/><path class="st1" d="M88.6 95.6v-5.4h-21V96h14.6c-2.9 3.5-5.3 7.5-7.1 11.7-1.8 4.3-2.9 8.7-3.2 13.3h6.7c0-2.1.3-4.3.7-6.6.5-2.4 1.1-4.7 1.9-7 .9-2.3 1.9-4.5 3.1-6.6 1.2-2.1 2.7-3.8 4.3-5.2zm18.1 25.4V90.2h-5c-.2 1.2-.5 2.2-1.1 2.9s-1.2 1.4-2.1 1.9c-.8.5-1.7.8-2.7 1-1 .2-2 .2-3.1.2v4.7h7.7v20h6.3zm37-8v-1.7c.1-.6.2-1.2.4-1.7s.5-1 .9-1.3c.4-.4 1-.5 1.7-.5.6 0 1.1.2 1.5.6.4.4.7.9.8 1.4.2.5.3 1.1.3 1.7.1.6.1 1.1.1 1.5 0 .5 0 1-.1 1.6 0 .6-.1 1.2-.4 1.7-.2.5-.5 1-.9 1.4-.4.4-.9.6-1.6.6-.7 0-1.2-.2-1.6-.6-.4-.4-.7-.8-.8-1.4-.2-.6-.3-1.1-.3-1.8V113zm-4.5-.1c0 1.2.1 2.3.4 3.4.3 1.1.7 2 1.2 2.8.6.8 1.3 1.4 2.2 1.8.9.4 2.1.7 3.4.7 1.3 0 2.4-.2 3.3-.6.9-.4 1.7-1 2.3-1.8.6-.8 1.1-1.7 1.4-2.7.3-1 .4-2.1.4-3.3s-.1-2.3-.4-3.4c-.2-1.1-.6-2-1.2-2.7-.6-.8-1.3-1.4-2.2-1.8-.9-.5-2.1-.7-3.4-.7-1.3 0-2.4.2-3.3.7-.9.4-1.7 1-2.3 1.8s-1.1 1.7-1.4 2.7c-.3.8-.4 1.9-.4 3.1zm3.4-23.7l-18.2 32.7h3.8l18.1-32.7h-3.7zM121 98.4v-1.7c.1-.6.2-1.2.4-1.8.2-.6.5-1 .9-1.4.4-.4 1-.6 1.7-.6.6 0 1.1.2 1.5.6.4.4.7.9.8 1.5.2.6.3 1.2.3 1.8.1.6.1 1.1.1 1.6s0 1-.1 1.6c0 .6-.1 1.1-.4 1.6-.2.5-.5.9-.9 1.3s-.9.5-1.6.5c-.7 0-1.2-.2-1.6-.5-.4-.4-.7-.8-.8-1.3-.2-.5-.3-1.1-.3-1.7v-1.5zm-4.5-.1c0 1.2.1 2.3.4 3.4.3 1 .7 1.9 1.2 2.7.6.7 1.3 1.3 2.2 1.8.9.4 2.1.6 3.4.6 1.3 0 2.4-.2 3.3-.6.9-.4 1.7-1 2.3-1.7.6-.7 1.1-1.6 1.4-2.6.3-1 .4-2.1.4-3.3 0-1.2-.1-2.3-.4-3.4-.2-1.1-.6-2-1.2-2.8-.6-.8-1.3-1.5-2.2-1.9-.9-.5-2.1-.7-3.4-.7-1.3 0-2.4.2-3.3.7-.9.4-1.7 1.1-2.3 1.8-.6.8-1.1 1.7-1.4 2.8-.3.9-.4 2-.4 3.2z"/><path d="M110 143c0-2.2-1.8-4-4-4s-4 1.8-4 4c0 2 1.4 3.6 3.2 3.9V230h1.5v-83.1c1.9-.3 3.3-1.9 3.3-3.9z" fill="#e2cc00"/></svg>