<svg xmlns="http://www.w3.org/2000/svg" viewBox="0 0 208 230"><circle cx="104" cy="105" r="88.2" fill="none" stroke="#ff6c0c" stroke-width="1.5"/><path d="M104 16c-49.2 0-89 39.8-89 89s39.8 89 89 89c26.3 0 49.9-11.4 66.2-29.5" fill="none" stroke="#003b4c" stroke-width="30"/><path d="M106 147c2.2 0 4-1.8 4-4s-1.8-4-4-4-4 1.8-4 4 1.8 4 4 4zm.8 83v-87h-1.5v87h1.5z" fill="#e2cc00"/><path d="M78.4 105c.8 0 1.5.2 2.1.5.6.3 1.1.8 1.5 1.3.4.5.7 1.1.8 1.8.2.7.3 1.4.3 2.1 0 .7-.1 1.4-.3 2.1-.2.7-.5 1.3-.9 1.8s-.9 1-1.5 1.3c-.6.3-1.2.5-2 .5s-1.5-.2-2.1-.5c-.6-.3-1.1-.7-1.6-1.3-.4-.6-.7-1.2-1-1.8-.2-.7-.3-1.4-.3-2.1 0-.8.1-1.5.3-2.2.2-.7.5-1.3.9-1.8s.9-.9 1.5-1.2c.7-.3 1.5-.5 2.3-.5zm4.5-6.9h5.9c-.2-1.4-.5-2.6-1.1-3.7-.5-1-1.3-1.9-2.2-2.6-.9-.7-1.9-1.3-3-1.7-1.1-.4-2.4-.6-3.7-.6-2.2 0-4.1.5-5.6 1.5s-2.8 2.3-3.7 3.8c-1 1.5-1.7 3.2-2.1 5.1-.4 1.9-.7 3.8-.7 5.7 0 2 .2 3.9.5 5.8.4 1.9 1 3.6 1.9 5.1.9 1.5 2.2 2.7 3.7 3.7 1.5.9 3.4 1.4 5.8 1.4 1.6 0 3.1-.3 4.4-.8 1.3-.6 2.4-1.4 3.4-2.4s1.7-2.2 2.2-3.6c.5-1.4.8-2.9.8-4.4 0-1.2-.2-2.4-.6-3.7-.4-1.2-1-2.3-1.8-3.2-.9-1-1.9-1.7-3.2-2.3-1.3-.6-2.6-.9-3.9-.9-1.5 0-2.8.3-4 .8s-2.1 1.4-3 2.6l-.1-.1c0-.9.1-1.8.4-2.9.2-1 .5-2.1 1-3 .4-1 1-1.8 1.8-2.4.8-.7 1.7-1 2.8-1 1.1 0 2 .4 2.7 1.1.7.8 1.2 1.7 1.4 2.7zm8.2 3.9h6c0-.8.1-1.6.2-2.5.2-.8.5-1.6.8-2.3.4-.7.9-1.3 1.5-1.7.6-.4 1.4-.7 2.3-.7 1.3 0 2.4.4 3.3 1.3.9.8 1.3 2 1.3 3.5 0 .9-.2 1.8-.7 2.5-.4.7-1 1.4-1.6 2-.6.6-1.3 1.1-2.1 1.6s-1.5.9-2.2 1.4c-1.3.9-2.6 1.8-3.8 2.7-1.2.9-2.2 1.8-3.1 2.9-.9 1-1.6 2.2-2.1 3.5-.5 1.3-.7 2.9-.7 4.7H113v-5.4H98.5c.7-1 1.6-2 2.6-2.8 1-.8 2-1.5 3.1-2.2 1-.7 2.1-1.4 3.1-2.1 1-.7 2-1.5 2.8-2.3.8-.9 1.5-1.9 2-3s.7-2.4.7-4c0-1.5-.3-2.8-.9-4-.5-1.2-1.3-2.2-2.3-3-1-.8-2.1-1.5-3.4-1.9-1.3-.4-2.6-.7-4-.7-1.8 0-3.5.3-4.9 1-1.4.6-2.6 1.5-3.5 2.6-.9 1.1-1.6 2.4-2.1 4-.4 1.5-.6 3.2-.6 4.9zm52.6 11v-1.7c.1-.6.2-1.2.4-1.7s.5-1 .9-1.3c.4-.4 1-.5 1.7-.5.6 0 1.1.2 1.5.6.4.4.7.9.8 1.4.2.5.3 1.1.3 1.7.1.6.1 1.1.1 1.5 0 .5 0 1-.1 1.6 0 .6-.1 1.2-.4 1.7-.2.5-.5 1-.9 1.4-.4.4-.9.6-1.6.6-.7 0-1.2-.2-1.6-.6-.4-.4-.7-.8-.8-1.4-.2-.6-.3-1.2-.3-1.8V113zm-4.5-.1c0 1.2.1 2.3.4 3.4.3 1.1.7 2 1.2 2.8.6.8 1.4 1.4 2.2 1.8.9.4 2.1.7 3.4.7 1.3 0 2.4-.2 3.3-.6.9-.4 1.7-1 2.3-1.8.6-.8 1.1-1.7 1.4-2.7.3-1 .4-2.1.4-3.3s-.1-2.3-.4-3.4c-.2-1.1-.6-2-1.2-2.7-.6-.8-1.3-1.4-2.2-1.8-.9-.5-2.1-.7-3.4-.7-1.3 0-2.4.2-3.3.7-.9.4-1.7 1-2.3 1.8-.6.8-1.1 1.7-1.4 2.7-.3.8-.4 1.9-.4 3.1zm3.4-23.7l-18.2 32.7h3.8l18.1-32.7h-3.7zM121 98.4v-1.7c.1-.6.2-1.2.4-1.8.2-.5.5-1 .9-1.4.4-.4 1-.6 1.7-.6.6 0 1.1.2 1.5.6.4.4.7.9.8 1.5.2.6.3 1.2.3 1.8.1.6.1 1.1.1 1.6s0 1-.1 1.6c0 .6-.1 1.1-.4 1.6-.2.5-.5.9-.9 1.3s-.9.5-1.6.5c-.7 0-1.2-.2-1.6-.5-.4-.3-.7-.8-.8-1.3-.2-.5-.3-1.1-.3-1.7v-1.5zm-4.5-.1c0 1.2.1 2.3.4 3.4.3 1 .7 1.9 1.2 2.7.6.7 1.3 1.3 2.2 1.8.9.4 2.1.6 3.4.6 1.3 0 2.4-.2 3.3-.6.9-.4 1.7-1 2.3-1.7.6-.7 1.1-1.6 1.4-2.6.3-1 .4-2.1.4-3.3s-.1-2.3-.4-3.4c-.2-1.1-.6-2-1.2-2.8-.6-.8-1.3-1.5-2.2-1.9-.9-.5-2.1-.7-3.4-.7-1.3 0-2.4.2-3.3.7-.9.4-1.7 1.1-2.3 1.8-.6.8-1.1 1.7-1.4 2.8-.3.9-.4 2.1-.4 3.2z" fill="#003b4c"/></svg>