<svg version="1.1" id="Layer_1" xmlns="http://www.w3.org/2000/svg" xmlns:xlink="http://www.w3.org/1999/xlink" x="0" y="0" viewBox="0 0 1440 1044" xml:space="preserve" enable-background="new 0 0 1440 1044"><style>.st3{fill:#000f13}.st3,.st4,.st5,.st6,.st7{fill-rule:evenodd;clip-rule:evenodd}.st4{fill:#001e26}.st5{fill:#002c39}.st6{fill:#00161c}.st7{fill:#003b4c}</style><defs><filter id="Adobe_OpacityMaskFilter" filterUnits="userSpaceOnUse" x="-291" y="-211.4" width="2129" height="1421.7"><feColorMatrix values="1 0 0 0 0 0 1 0 0 0 0 0 1 0 0 0 0 0 1 0"/></filter></defs><mask maskUnits="userSpaceOnUse" x="-291" y="-211.4" width="2129" height="1421.7" id="a_00000179625837104096732260000016264669926828188597_"><path d="M0 0h1440v1044H0V0z" filter="url(#Adobe_OpacityMaskFilter)"/></mask><g mask="url(#a_00000179625837104096732260000016264669926828188597_)"><path d="M0 0h1440v895.7H0V0z" fill="#ff6c0c"/><path class="st3" d="M-291-211.4h2129v1421.7H-291V-211.4z"/><path class="st4" d="M608.8 499.5V321.7l153.7 88.9-153.7 88.9z"/><path class="st5" d="M762.5 410.6V232.9L608.8 144v177.7l153.7 88.9z"/><path class="st4" d="M762.5 410.6V232.9l153.6 88.9-153.6 88.8zm153.6 266.6V499.5l-153.6-88.9v177.7l153.6 88.9z"/><path class="st6" d="M916.1 499.5V321.7l-153.6 88.9 153.6 88.9z"/><path class="st4" d="M762.5 232.9v-444.3H608.8V144l153.7 88.9z"/><path class="st5" d="M1223.4 677.2V499.5L916.1 321.7v177.7l307.3 177.8z"/><path class="st6" d="M1069.8 766l153.7-88.9-307.4-177.6v177.7l153.7 88.8z"/><path class="st3" d="M916.1 854.9V677.2l153.7 88.9-153.7 88.8z"/><path class="st6" d="M1377.1 766V588.3l-153.7 88.9-153.6 88.8v177.7L1377.1 766z"/><path class="st4" d="M1069.8 766l153.7 88.9-153.7 88.9-153.7-88.9 153.7-88.9z"/><path class="st7" d="M1377.1 766l153.6-88.9 153.7 88.9-153.7 88.9-153.6 88.9-153.7-88.9 153.7-88.9z"/><path class="st5" d="M1223.4 854.9V677.2l153.7 88.9-153.7 88.8z"/><path class="st4" d="M1223.4 1032.6V854.9l-153.7 88.9 153.7 88.8z"/><path class="st5" d="M1223.4 1032.6V854.9l153.7 88.9-153.7 88.8zm307.3-177.7V677.2L1377 766l153.7 88.9z"/><path class="st4" d="M1377.1 766V588.3l-153.7-88.9v177.7l153.7 88.9z"/><path class="st3" d="M1223.4 499.5V144L916.1 321.7l307.3 177.8z"/><path class="st4" d="M1069.8 55.2l153.7 88.9-307.4 177.6V144l153.7-88.8z"/><path class="st5" d="M1223.4 144V-33.7l-153.7 88.8 153.7 88.9z"/><path class="st3" d="M1223.4 144V-33.7l153.7 88.8-153.7 88.9z"/><path class="st5" d="M1377.1 232.9V55.2L1223.4 144l153.7 88.9z"/><path class="st4" d="M1377.1 410.6V232.9L1223.4 144v355.4l153.7-88.8z"/><path class="st5" d="M1377.1 410.6V232.9l307.3-177.7v177.7l-307.3 177.7zm0-355.4v-266.6h153.6v177.7l-153.6 88.9z"/><path class="st7" d="M1069.8 55.2l153.7-88.8 153.7 88.8v-266.6h-153.7L916.1-33.7l153.7 88.9z"/><path class="st3" d="M916.1 321.7V144l153.7-88.9-153.7-88.8v-177.7H762.5v444.3l153.6 88.8z"/><path class="st6" d="M608.8 499.5V321.7L-291-198.6v177.7l899.8 520.4z"/><path class="st4" d="M608.8 321.7V144L-5.8-211.4H-291v12.8l899.8 520.3z"/><path class="st5" d="M608.8 144v-355.4H-5.8L608.8 144z"/><path class="st7" d="M1377.1 232.9V55.2l153.6-88.8v-177.7h153.7V55.2l-307.3 177.7z"/><path class="st4" d="M1377.1 1121.5l-153.7-88.9 307.3-177.7v177.7l-153.6 88.9z"/><path class="st3" d="M1377.1 1210.3v-88.9l-153.7-88.9v177.7h153.7z"/><path class="st5" d="M1377.1 1210.3v-88.9l153.6-88.9v177.7h-153.6z"/><path class="st3" d="M1530.7 499.5V321.7L1377 410.6V766l153.6-88.8L1838 854.9V677.2l-307.3-177.7z"/><path class="st4" d="M1223.4 1032.6v177.7H916.1l307.3-177.7z"/><path class="st6" d="M1069.8 943.7l153.7 88.9-307.3 177.7H608.8l461-266.6z"/><path class="st4" d="M916.1 854.9l153.7 88.9-460.9 266.6H301.5l614.6-355.5z"/><path class="st5" d="M1377.1 588.3V410.6l-153.7 88.9 153.7 88.8z"/><path d="M46 0l1394 802M355 0l1088 626m-1.2-81l-861.1 498.8" fill="none" stroke="#e2cc00" stroke-width="1.5"/></g><image width="1038" height="1315" xlink:href="../../../../Downloads/Photo.png" transform="translate(916.107 145.56) scale(.2962)" overflow="visible"/></svg>