<svg xmlns="http://www.w3.org/2000/svg" viewBox="0 0 1688.54 286.69"><defs><style>.cls-1{fill:#fff}</style></defs><g id="Layer_2" data-name="Layer 2"><path class="cls-1" d="M75 179.69V194H37.56v18H70v13.25H37.56v32h-17v-77.56zm10.25 22.98a38.74 38.74 0 0 1 7.5-13 34.36 34.36 0 0 1 12-8.7 39.36 39.36 0 0 1 16-3.15 39.27 39.27 0 0 1 16.11 3.18 34.54 34.54 0 0 1 11.95 8.7 38.89 38.89 0 0 1 7.49 13 48.42 48.42 0 0 1 2.61 16.13 46.83 46.83 0 0 1-2.61 15.81 37.87 37.87 0 0 1-7.49 12.76 34.5 34.5 0 0 1-11.95 8.53 39.76 39.76 0 0 1-16.08 3.1 39.86 39.86 0 0 1-16-3.1 34.33 34.33 0 0 1-12-8.53 37.73 37.73 0 0 1-7.5-12.76 46.82 46.82 0 0 1-2.6-15.81 48.42 48.42 0 0 1 2.57-16.16zm15.59 25.64a25.54 25.54 0 0 0 3.64 8.31 18.77 18.77 0 0 0 6.52 5.92 22.54 22.54 0 0 0 19.55 0 18.68 18.68 0 0 0 6.52-5.92 25.54 25.54 0 0 0 3.64-8.31 39.55 39.55 0 0 0 1.14-9.51 42.55 42.55 0 0 0-1.14-9.89 26.11 26.11 0 0 0-3.64-8.52 18.47 18.47 0 0 0-6.52-6 22.54 22.54 0 0 0-19.55 0 18.55 18.55 0 0 0-6.52 6 26.11 26.11 0 0 0-3.64 8.52 42.55 42.55 0 0 0-1.14 9.89 39.55 39.55 0 0 0 1.14 9.51zm112.6-48.62a24.83 24.83 0 0 1 9.4 1.69A21.62 21.62 0 0 1 230 186a20.11 20.11 0 0 1 4.56 6.79 21.76 21.76 0 0 1 1.58 8.31 23.29 23.29 0 0 1-2.88 11.84q-2.88 5-9.4 7.61v.22a13.15 13.15 0 0 1 5.22 2.66 14.92 14.92 0 0 1 3.37 4.23 20.18 20.18 0 0 1 1.9 5.38 47.31 47.31 0 0 1 .81 5.87c.07 1.23.15 2.68.22 4.34s.2 3.37.38 5.11a33.63 33.63 0 0 0 .87 4.94 11.41 11.41 0 0 0 1.79 4h-17.04a29.58 29.58 0 0 1-1.74-8.8q-.33-5.1-1-9.78-.87-6.08-3.69-8.91t-9.22-2.81h-17.06v30.31h-17v-77.62zm-6.08 35.09q5.87 0 8.8-2.61c2-1.73 2.93-4.56 2.93-8.47 0-3.76-1-6.5-2.93-8.2s-4.89-2.55-8.8-2.55h-18.69v21.83zm88.1 23.36a12.29 12.29 0 0 0 3.75 4.4 16.46 16.46 0 0 0 5.49 2.5 26.06 26.06 0 0 0 6.52.81 32.88 32.88 0 0 0 4.88-.38A17 17 0 0 0 321 244a10.8 10.8 0 0 0 3.81-3 7.53 7.53 0 0 0 1.52-4.84 6.79 6.79 0 0 0-2-5.1 15.89 15.89 0 0 0-5.27-3.26 52.66 52.66 0 0 0-7.39-2.28c-2.75-.66-5.54-1.38-8.37-2.18a73.7 73.7 0 0 1-8.47-2.66 29.46 29.46 0 0 1-7.39-4.07 19.39 19.39 0 0 1-5.27-6.25 19 19 0 0 1-2-9.07 20.31 20.31 0 0 1 2.55-10.37 23.13 23.13 0 0 1 6.68-7.34 29.22 29.22 0 0 1 9.34-4.34 39.88 39.88 0 0 1 10.43-1.42 49.61 49.61 0 0 1 11.68 1.36 29.4 29.4 0 0 1 9.94 4.4 22.24 22.24 0 0 1 6.9 7.77 23.84 23.84 0 0 1 2.55 11.46h-16.53a13.83 13.83 0 0 0-1.47-5.76 9.61 9.61 0 0 0-3.31-3.58 14 14 0 0 0-4.73-1.85 29.21 29.21 0 0 0-5.81-.54 20 20 0 0 0-4.13.43 11.26 11.26 0 0 0-3.75 1.52 9.58 9.58 0 0 0-2.77 2.72 7.33 7.33 0 0 0-1.08 4.13 7 7 0 0 0 .87 3.69 7.8 7.8 0 0 0 3.47 2.63 43.82 43.82 0 0 0 7.06 2.39c3 .8 6.93 1.81 11.79 3q2.18.44 6 1.58a28.85 28.85 0 0 1 7.66 3.64 23.14 23.14 0 0 1 6.57 6.68 19 19 0 0 1 2.77 10.7 23.61 23.61 0 0 1-2.07 9.88 21.41 21.41 0 0 1-6.13 7.88 29.55 29.55 0 0 1-10.11 5.16 47.78 47.78 0 0 1-14 1.85 48.91 48.91 0 0 1-12.43-1.58 31.41 31.41 0 0 1-10.65-4.94 24.47 24.47 0 0 1-7.33-8.58 25.57 25.57 0 0 1-2.61-12.39h16.51a14.25 14.25 0 0 0 1.43 6.67zM347.93 194v-14.31h63.56V194h-23.25v63.23h-17.06V194zm130.59 57.34q-8.8 7.66-24.34 7.66-15.75 0-24.39-7.61t-8.63-23.46v-48.24h17v48.24a35.35 35.35 0 0 0 .54 6.19 12.08 12.08 0 0 0 7.12 9.18 19.58 19.58 0 0 0 8.31 1.47q9.12 0 12.6-4.08t3.48-12.76v-48.24h17.06v48.24q.05 15.75-8.75 23.41zm56.2-71.65a40.05 40.05 0 0 1 14 2.39 30.46 30.46 0 0 1 11.19 7.17 33.06 33.06 0 0 1 7.38 11.95 48.23 48.23 0 0 1 2.63 16.8 53.65 53.65 0 0 1-2.18 15.64 34.55 34.55 0 0 1-6.57 12.39 30.71 30.71 0 0 1-11 8.2 37.21 37.21 0 0 1-15.48 3h-33.43v-77.54zm-1.2 63.23a21.84 21.84 0 0 0 7.17-1.2 15.74 15.74 0 0 0 6.19-4 20 20 0 0 0 4.35-7.23 31.69 31.69 0 0 0 1.63-10.86 45.24 45.24 0 0 0-1.14-10.59A21.17 21.17 0 0 0 548 201a16.73 16.73 0 0 0-6.9-5.16 27.63 27.63 0 0 0-10.62-1.84h-12.17v48.89zm107.34-63.23V194h-41v16.62h37.59v13.26H599.9v19h41.82v14.34h-58.88v-77.53zm30.41 0 32.38 52h.21v-52h16v77.57h-17.08l-32.27-51.93h-.21v51.93h-16v-77.57zM729.83 194v-14.31h63.55V194h-23.25v63.23h-17V194zm86.58 44.14a12.29 12.29 0 0 0 3.75 4.4 16.46 16.46 0 0 0 5.49 2.5 26.06 26.06 0 0 0 6.52.81 32.88 32.88 0 0 0 4.88-.38 17 17 0 0 0 4.89-1.46 10.67 10.67 0 0 0 3.8-3 7.48 7.48 0 0 0 1.53-4.84 6.79 6.79 0 0 0-2-5.1 16 16 0 0 0-5.27-3.26 52.66 52.66 0 0 0-7.39-2.28c-2.75-.66-5.54-1.38-8.37-2.18a73.7 73.7 0 0 1-8.47-2.66 29.46 29.46 0 0 1-7.39-4.07 19.27 19.27 0 0 1-5.27-6.25 19 19 0 0 1-2-9.07 20.31 20.31 0 0 1 2.56-10.37 23.13 23.13 0 0 1 6.68-7.34 29.12 29.12 0 0 1 9.34-4.34 39.83 39.83 0 0 1 10.43-1.42 49.61 49.61 0 0 1 11.68 1.36 29.4 29.4 0 0 1 9.94 4.4 22.24 22.24 0 0 1 6.9 7.77 23.84 23.84 0 0 1 2.55 11.46h-16.53a13.83 13.83 0 0 0-1.47-5.76 9.61 9.61 0 0 0-3.31-3.58 14 14 0 0 0-4.73-1.85 29.21 29.21 0 0 0-5.81-.54 20 20 0 0 0-4.13.43 11.26 11.26 0 0 0-3.75 1.52 9.58 9.58 0 0 0-2.77 2.72 7.33 7.33 0 0 0-1.08 4.13 7 7 0 0 0 .87 3.69 7.8 7.8 0 0 0 3.42 2.61 43.48 43.48 0 0 0 7.06 2.39q4.5 1.2 11.79 3 2.16.44 6 1.58a28.85 28.85 0 0 1 7.66 3.64 23.14 23.14 0 0 1 6.57 6.68 19.06 19.06 0 0 1 2.77 10.7 23.61 23.61 0 0 1-2.07 9.88 21.41 21.41 0 0 1-6.13 7.88 29.55 29.55 0 0 1-10.11 5.16 47.78 47.78 0 0 1-14 1.85 49 49 0 0 1-12.44-1.58 31.27 31.27 0 0 1-10.64-4.94 24.5 24.5 0 0 1-7.34-8.58 25.57 25.57 0 0 1-2.6-12.39H815a14.25 14.25 0 0 0 1.41 6.68z"/><path d="M67.89 129.05a47.66 47.66 0 0 1-11.26 3.86 51.4 51.4 0 0 1-9.69 1 32.1 32.1 0 0 1-12.68-2.2 19.56 19.56 0 0 1-8.19-6.38 25.86 25.86 0 0 1-4.33-10.16 67 67 0 0 1-1.26-13.71V74.23H0V58.16h39.85V104q0 6.61 2.45 9.85c1.62 2.15 4.33 3.23 8.11 3.23a36.21 36.21 0 0 0 6.46-.71 35.8 35.8 0 0 0 8.5-2.92zM39.07 36.9a11.56 11.56 0 0 1-3.63 9 12.41 12.41 0 0 1-8.66 3.3 12.17 12.17 0 0 1-8.59-3.3 11.7 11.7 0 0 1-3.54-9q0-5.84 3.54-9.14a12.18 12.18 0 0 1 8.59-3.31 12.41 12.41 0 0 1 8.66 3.31q3.63 3.31 3.63 9.14zM83 60.53a129.77 129.77 0 0 1 12.84-2.68 102.46 102.46 0 0 1 16.62-1.26q8.82 0 14.65 2.44a21.83 21.83 0 0 1 9.23 6.97 27.78 27.78 0 0 1 4.8 10.71 61.84 61.84 0 0 1 1.42 13.79v41.7h-19.38V93c0-6.94-.78-11.92-2.36-15s-4.78-4.57-9.61-4.57c-1.47 0-2.91.06-4.33.16s-2.91.26-4.49.47v58.14H83zm142.42 68.52a47.87 47.87 0 0 1-11.27 3.86 51.38 51.38 0 0 1-9.68 1 32.06 32.06 0 0 1-12.68-2.2 19.53 19.53 0 0 1-8.2-6.38 26 26 0 0 1-4.33-10.16 67 67 0 0 1-1.26-13.69V74.23h-20.48V58.16h39.86V104q0 6.61 2.44 9.85t8.11 3.23a35.12 35.12 0 0 0 15-3.63zM196.59 36.9a11.58 11.58 0 0 1-3.62 9 12.45 12.45 0 0 1-8.67 3.3 12.13 12.13 0 0 1-8.58-3.3 11.68 11.68 0 0 1-3.55-9q0-5.84 3.55-9.14a12.14 12.14 0 0 1 8.58-3.31 12.46 12.46 0 0 1 8.7 3.31q3.58 3.31 3.59 9.14zm51.12 37.33h-16.86V58.16h16.86V39.58l19.37-3.15v21.73h31v16.07h-31v29.93a23 23 0 0 0 .79 6.62 9.39 9.39 0 0 0 2.21 3.93 7 7 0 0 0 3.46 1.9 20.71 20.71 0 0 0 4.57.47c1.79 0 3.44 0 5-.16a38.21 38.21 0 0 0 4.41-.55 30.85 30.85 0 0 0 4.41-1.18 51.31 51.31 0 0 0 5-2l2.67 16.7A50.07 50.07 0 0 1 288 133a80.29 80.29 0 0 1-12 .94 58.56 58.56 0 0 1-12-1.1 19.26 19.26 0 0 1-8.82-4.25 19.62 19.62 0 0 1-5.51-8.9q-1.89-5.76-1.89-15.05zm133.42 54.82a47.81 47.81 0 0 1-11.26 3.86 51.4 51.4 0 0 1-9.69 1 32.1 32.1 0 0 1-12.68-2.2 19.5 19.5 0 0 1-8.19-6.38 25.72 25.72 0 0 1-4.31-10.14 66.28 66.28 0 0 1-1.26-13.71V74.23h-20.5V58.16h39.85V104q0 6.61 2.44 9.85c1.63 2.15 4.33 3.23 8.12 3.23a35.13 35.13 0 0 0 15-3.63zM352.3 36.9a11.58 11.58 0 0 1-3.62 9 12.42 12.42 0 0 1-8.66 3.3 12.13 12.13 0 0 1-8.59-3.3 11.7 11.7 0 0 1-3.54-9q0-5.84 3.54-9.14a12.14 12.14 0 0 1 8.57-3.31 12.43 12.43 0 0 1 8.66 3.31q3.63 3.31 3.64 9.14zm71.83 19.37a46.5 46.5 0 0 1 15.21 2.13 23.71 23.71 0 0 1 9.68 6 22.36 22.36 0 0 1 5.2 9.45 46.16 46.16 0 0 1 1.58 12.52v44.11q-4.26.94-12.6 2.2a126.51 126.51 0 0 1-18.75 1.26 60.1 60.1 0 0 1-12.84-1.26 26.63 26.63 0 0 1-9.84-4.17 19.13 19.13 0 0 1-6.31-7.56 26.55 26.55 0 0 1-2.2-11.42 21.61 21.61 0 0 1 2.52-10.87 20 20 0 0 1 6.77-7.09 29.9 29.9 0 0 1 9.77-3.86 54.63 54.63 0 0 1 11.5-1.18 63.82 63.82 0 0 1 13.39 1.26v-2.38a13 13 0 0 0-3.47-9.21q-3.47-3.7-12-3.7a70.42 70.42 0 0 0-10.63.78 47.72 47.72 0 0 0-8.27 1.9l-2.68-15.6a61.27 61.27 0 0 1 10.24-2.28 88.57 88.57 0 0 1 13.73-1.03zm1.74 62.07c2.1 0 4.14 0 6.14-.08a43.11 43.11 0 0 0 5.2-.4v-17c-1.26-.21-2.79-.39-4.57-.55s-3.41-.23-4.88-.23a42.7 42.7 0 0 0-5.83.39 18.28 18.28 0 0 0-5 1.34 8.17 8.17 0 0 0-3.39 2.68 7.56 7.56 0 0 0-1.26 4.56c0 3.37 1.26 5.75 3.78 7.17a19.78 19.78 0 0 0 9.81 2.12zm61.75-44.11h-16.86V58.16h16.86V39.58L507 36.43v21.73h31v16.07h-31v29.93a22.62 22.62 0 0 0 .79 6.62 9.38 9.38 0 0 0 2.2 3.93 7.06 7.06 0 0 0 3.47 1.9 20.64 20.64 0 0 0 4.57.47c1.78 0 3.44 0 5-.16a38.49 38.49 0 0 0 4.41-.55 30.85 30.85 0 0 0 4.41-1.18 51.2 51.2 0 0 0 5-2l2.68 16.7a50 50 0 0 1-11.67 3.11 80.19 80.19 0 0 1-12.05.94 58.53 58.53 0 0 1-12-1.1 19.26 19.26 0 0 1-8.82-4.25 19.54 19.54 0 0 1-5.51-8.9q-1.89-5.76-1.89-15.05zM621 129.05a47.81 47.81 0 0 1-11.26 3.86 51.4 51.4 0 0 1-9.69 1 32.1 32.1 0 0 1-12.68-2.2 19.44 19.44 0 0 1-8.19-6.38 25.87 25.87 0 0 1-4.34-10.16 67 67 0 0 1-1.26-13.71V74.23h-20.43V58.16H593V104q0 6.61 2.44 9.85t8.11 3.23a35.12 35.12 0 0 0 15-3.63zM592.21 36.9a11.58 11.58 0 0 1-3.62 9 12.45 12.45 0 0 1-8.67 3.3 12.13 12.13 0 0 1-8.58-3.3 11.71 11.71 0 0 1-3.55-9q0-5.84 3.55-9.14a12.14 12.14 0 0 1 8.58-3.31 12.46 12.46 0 0 1 8.67 3.31q3.61 3.31 3.62 9.14zm60.96 95.3q-7.08-14-14.41-32.85t-13.94-41.19h20.32c1 4 2.07 8.25 3.39 12.76s2.7 9.06 4.17 13.63 3 9 4.49 13.31 3 8.25 4.33 11.81q2.06-5.34 4.57-11.81t5-13.31q2.44-6.85 4.73-13.63t3.7-12.76h19.69a376.29 376.29 0 0 1-14.65 41.19q-8 18.84-15.12 32.85zm53.09-36.39a45.7 45.7 0 0 1 3-17.17 37.26 37.26 0 0 1 7.88-12.36 32.41 32.41 0 0 1 11.18-7.49 34.51 34.51 0 0 1 12.92-2.52q16.38 0 24.89 9.69t8.51 28.28c0 1.26 0 2.57-.08 3.93s-.14 2.47-.24 3.31h-48a13.19 13.19 0 0 0 6 11.42q6 4.18 15.44 4.18a47.68 47.68 0 0 0 11.1-1.26q5.28-1.26 8.9-2.52l2.68 16.54a89.78 89.78 0 0 1-10.71 2.91 62.62 62.62 0 0 1-12.76 1.18 54.35 54.35 0 0 1-16.97-2.44 34.56 34.56 0 0 1-12.76-7.25 31.67 31.67 0 0 1-8.11-11.89 44.34 44.34 0 0 1-2.87-16.54zm49.62-7.72a20.69 20.69 0 0 0-.79-5.75 14.2 14.2 0 0 0-2.52-5 12.65 12.65 0 0 0-4.41-3.54 14.74 14.74 0 0 0-6.61-1.34 15.6 15.6 0 0 0-6.55 1.3 12.57 12.57 0 0 0-4.57 3.46 17 17 0 0 0-2.83 5 24.54 24.54 0 0 0-1.34 5.83z" fill="#e2cc00"/><path class="cls-1" d="M1594.27 215.43h25.33v-54c0-12.87 5.82-29.07 24.92-29.07 12.88 0 18.69 6.23 18.69 20.77v62.29h25.33v-69.55c0-30.52-20.56-38-38.41-38-14.33 0-24.51 5.61-30.11 12.88h-.42V63.44h-25.33zm-7.89-77.66c-6.43-15.78-18.89-29.9-44.43-29.9-34 0-53.78 23.67-53.78 55s19.73 55 51.91 55c28.45 0 40.49-16.82 47.55-32.19L1566 174.31c-4 9.56-10.38 20.35-25.54 20.35-17.65 0-25.75-15.36-25.75-31.77s9.14-31.76 27.2-31.76c10 0 18.9 6.43 22.22 16.82zm-184.3 11.63c2.7-11.21 12.46-20.76 27.2-20.76 17 0 23.87 15.15 23.87 20.76zm77.65 19.52c0-37.59-15.37-61-50.45-61-34.06 0-53.78 23.67-53.78 55s19.72 55 53.78 55c28.65 0 43.81-13.7 51.7-25.75l-21.39-12.46c-2.49 3.53-10.38 14.95-30.31 14.95-13.71 0-26.79-10.17-27.2-25.74zm-153.51-81.43v103.85c0 16 7.06 25.33 27.83 25.33a93.37 93.37 0 0 0 20.14-2.49v-20.76c-3.74.41-7.69 1.24-11.22 1.24-9.75 0-11.42-4.57-11.42-12.87v-53.15h22.64v-18.28h-22.64V62.13zm-42.44 127.94h25.33v-152h-25.33zm-43.46-37.58c0 13.49-15.16 19.3-27 19.3-9.14 0-16.41-5.19-16.41-13.08 0-10 7.89-12.66 17.44-14.53l13.91-2.91a45.32 45.32 0 0 0 12-3.74zm25.33-35.51c0-29.9-22.63-34.47-45.27-34.47-23 0-44.85 9.55-44.85 34.26l25.34 1c0-11.42 4.77-15.78 19.51-15.78 11 0 19.94 2.91 19.94 13.29v3.11c-6.44 2.29-18.28 4.36-27.41 6.23l-10.59 2.08c-15.57 3.11-32 12.25-32 32.81 0 20.34 15.77 33 35.71 33a53 53 0 0 0 34.26-12c0 2.7.83 7.05 2.49 9.55h26.78c-1.45-2.29-3.94-6.85-3.94-17.65zm-99.13-32c-7-30.93-29.69-46.5-59.38-46.5-44.22 0-70.09 35.92-70.09 77.65s22.75 77.65 70.09 77.65c29.49 0 49.21-14.32 61-44l-25.34-11.63c-5.39 17.23-16.4 29.9-35.71 29.9-29.48 0-41.73-26.16-41.73-51.91s12.25-51.91 41.73-51.91c16.82 0 30.32 11.21 32.6 27.62zM943.77 276.65l-21.53 10.04L968.8 10.03 990.33 0l-46.56 276.65z"/></g></svg>