<svg xmlns="http://www.w3.org/2000/svg" viewBox="0 0 285.4 68.8"><path d="M244.1 67.2h11.1V43.5c0-5.6 2.5-12.7 10.9-12.7 5.6 0 8.2 2.7 8.2 9.1v27.3h11.1V36.7c0-13.4-9-16.6-16.8-16.6-6.3 0-10.7 2.5-13.2 5.6h-.2V.6h-11.1v66.6zm-3.4-34c-2.8-6.9-8.3-13.1-19.5-13.1-14.9 0-23.6 10.4-23.6 24.1s8.6 24.1 22.7 24.1c12.5 0 17.8-7.4 20.8-14.1l-9.5-5c-1.7 4.2-4.6 8.9-11.2 8.9-7.7 0-11.3-6.7-11.3-13.9s4-13.9 11.9-13.9c4.5 0 8.5 3 9.7 7.4l10-4.5zm-80.8 5.1c1.3-5.5 6.3-9.3 11.9-9.1 7.5 0 10.5 6.6 10.5 9.1h-22.4zm34 8.5c0-16.5-6.7-26.8-22.1-26.8-14.9 0-23.6 10.4-23.6 24.1s8.6 24.1 23.6 24.1c12.6 0 19.2-6 22.6-11.3l-9.4-5.5c-1.1 1.5-4.5 6.5-13.3 6.5-6.4.1-11.7-4.9-11.9-11.3h34.1zm-67.2-35.7v45.5c0 7 3.1 11.1 12.2 11.1 3 0 5.9-.4 8.8-1.1v-9.1c-1.6.3-3.3.4-4.9.5-4.3 0-5-2-5-5.6V29.1h9.9v-8h-9.9V0l-11.1 11.1zm-18.6 56.1h11.2V.6h-11.1l-.1 66.6zm-19-16.5c0 5.9-6.7 8.5-11.8 8.5-4 0-7.2-2.3-7.2-5.7 0-4.4 3.5-5.5 7.6-6.4l6.1-1.3c1.8-.3 3.6-.9 5.3-1.6v6.5zm11.1-15.5c0-13.1-9.9-15.1-19.8-15.1-10.1 0-19.7 4.2-19.7 15l11.1.5c0-5 2.1-6.9 8.6-6.9 4.8 0 8.7 1.3 8.7 5.8v1.4c-2.8 1-8 1.9-12 2.7l-4.6.9c-6.8 1.4-14 5.4-14 14.4s6.9 14.5 15.7 14.5c5.5.1 10.8-1.8 15-5.3 0 1.5.4 2.9 1.1 4.2H102c-.6-1-1.7-3-1.7-7.7l-.1-24.4zm-43.5-14C53.6 7.6 43.7.8 30.7.8 11.3.8 0 16.5 0 34.8s10 34 30.7 34c12.9 0 21.6-6.3 26.8-19.3l-11.1-5.1C44 52 39.2 57.5 30.7 57.5c-12.9 0-18.3-11.5-18.3-22.8S17.8 12 30.7 12C38.1 12 44 16.9 45 24.1l11.7-2.9z" fill="#ff6c0c"/></svg>