<svg version="1.1" id="Layer_1" xmlns="http://www.w3.org/2000/svg" x="0" y="0" viewBox="0 0 208 230" xml:space="preserve"><style>.st1{fill:#003b4c}</style><path d="M103 194c-49.1 0-89-39.9-89-89s39.9-89 89-89 89 39.9 89 89-39.9 89-89 89zm0-176.5c-48.2 0-87.5 39.3-87.5 87.5s39.3 87.5 87.5 87.5 87.5-39.3 87.5-87.5-39.3-87.5-87.5-87.5z" fill="#ff6c0c"/><path class="st1" d="M95.8 208.7c-26-2-50.2-13.7-68-32.9C9.9 156.5 0 131.4 0 105 0 47.7 46.7 1 104 1v30c-40.8 0-74 33.2-74 74 0 18.8 7 36.6 19.8 50.4 12.7 13.7 29.9 22 48.4 23.4l-2.4 29.9z"/><path class="st1" d="M78.5 98v10.7h-8.1l8-10.7h.1zm0 15.9v7.1h5.9v-7.1h4.1v-5.1h-4.1V90.2h-5.6l-13.4 18v5.7h13.1zm32-18.6v-5.1H93.3l-3 17h5.6c.6-.9 1.3-1.5 2-1.8.7-.4 1.6-.6 2.7-.6.9 0 1.6.1 2.2.4.6.3 1.2.7 1.7 1.2s.8 1.1 1.1 1.8c.2.7.4 1.5.4 2.2 0 .8-.1 1.5-.4 2.2-.2.7-.6 1.3-1.1 1.9-.4.5-1 1-1.7 1.3-.6.3-1.4.5-2.2.5-1.4 0-2.6-.4-3.5-1.2-.9-.9-1.4-2-1.6-3.4h-6.2c0 1.6.4 3 1 4.3.6 1.2 1.5 2.2 2.6 3s2.3 1.4 3.6 1.8c1.4.4 2.8.6 4.3.6 1.6 0 3-.2 4.4-.7 1.4-.6 2.6-1.3 3.6-2.3 1.1-1 1.9-2.2 2.5-3.5.6-1.4.9-2.9.9-4.4 0-1.4-.2-2.8-.7-4-.4-1.3-1-2.4-1.8-3.3-.8-.9-1.8-1.7-2.9-2.2-1.2-.6-2.5-.8-4-.8-1.2 0-2.3.2-3.3.6-1 .4-1.9 1-2.7 1.8l-.1-.1 1.2-7h12.6zm32.2 17.7v-1.7c.1-.6.2-1.2.4-1.7s.5-1 .9-1.3c.4-.4 1-.5 1.7-.5.6 0 1.1.2 1.5.6.4.4.7.9.8 1.4.2.5.3 1.1.3 1.7.1.6.1 1.1.1 1.5 0 .5 0 1-.1 1.6 0 .6-.1 1.2-.4 1.7-.2.5-.5 1-.9 1.4-.4.4-.9.6-1.6.6-.7 0-1.2-.2-1.6-.6-.4-.4-.7-.8-.8-1.4-.2-.6-.3-1.1-.3-1.8V113zm-4.5-.1c0 1.2.1 2.3.4 3.4.3 1.1.7 2 1.2 2.8.6.8 1.3 1.4 2.2 1.8.9.4 2.1.7 3.4.7 1.3 0 2.4-.2 3.3-.6.9-.4 1.7-1 2.3-1.8.6-.8 1.1-1.7 1.4-2.7.3-1 .4-2.1.4-3.3s-.1-2.3-.4-3.4c-.2-1.1-.6-2-1.2-2.7-.6-.8-1.3-1.4-2.2-1.8-.9-.5-2.1-.7-3.4-.7-1.3 0-2.4.2-3.3.7-.9.4-1.7 1-2.3 1.8s-1.1 1.7-1.4 2.7c-.3.8-.4 1.9-.4 3.1zm3.4-23.7l-18.2 32.7h3.8l18.1-32.7h-3.7zM120 98.4v-1.7c.1-.6.2-1.2.4-1.8.2-.6.5-1 .9-1.4.4-.4 1-.6 1.7-.6.6 0 1.1.2 1.5.6.4.4.7.9.8 1.5s.3 1.2.3 1.8c.1.6.1 1.1.1 1.6s0 1-.1 1.6c0 .6-.1 1.1-.4 1.6-.2.5-.5.9-.9 1.3s-.9.5-1.6.5c-.7 0-1.2-.2-1.6-.5-.4-.4-.7-.8-.8-1.3-.2-.5-.3-1.1-.3-1.7v-1.5zm-4.5-.1c0 1.2.1 2.3.4 3.4.3 1 .7 1.9 1.2 2.7.6.7 1.3 1.3 2.2 1.8.9.4 2.1.6 3.4.6 1.3 0 2.4-.2 3.3-.6.9-.4 1.7-1 2.3-1.7.6-.7 1.1-1.6 1.4-2.6.3-1 .4-2.1.4-3.3s-.1-2.3-.4-3.4c-.2-1.1-.6-2-1.2-2.8-.6-.8-1.3-1.5-2.2-1.9-.9-.5-2.1-.7-3.4-.7-1.3 0-2.4.2-3.3.7-.9.4-1.7 1.1-2.3 1.8-.6.8-1.1 1.7-1.4 2.8-.3.9-.4 2-.4 3.2z"/><path d="M109 143.2c0-2.2-1.8-4-4-4s-4 1.8-4 4c0 2 1.4 3.6 3.2 3.9v83.1h1.5v-83.1c1.9-.4 3.3-2 3.3-3.9z" fill="#e2cc00"/></svg>