<svg version="1.1" id="Layer_1" xmlns="http://www.w3.org/2000/svg" x="0" y="0" width="346" height="101" xml:space="preserve"><style>.st0{fill:#bfb8af}.st1{fill:#333740}</style><path class="st0" d="M248.1 3h94.3v94.3h-94.3z"/><path class="st1" d="M245.1 0v100.3h100.3V0H245.1zm97.3 97.3h-94.3V3h94.3v94.3z"/><path class="st1" d="M318.2 69L300 50.4l7.2-7.3c.3.1.6.1 1 .1 1.1 0 2.1-.4 2.8-1.2 1.5-1.6 1.5-4.1 0-5.6l-11.3-11.5c-.7-.8-1.7-1.2-2.8-1.2-1.1 0-2.1.4-2.8 1.2-1 1-1.3 2.5-1 3.8l-16.6 16.9c-.3-.1-.6-.1-1-.1-1.1 0-2.1.4-2.8 1.2-1.5 1.6-1.5 4.1 0 5.6L284 63.8c.7.8 1.7 1.2 2.8 1.2 1.1 0 2.1-.4 2.8-1.2 1-1 1.3-2.5 1-3.8l7.4-7.5 18 18.6c.3.3.7.4 1.1.4.4 0 .8-.1 1.1-.4.5-.6.6-1.5 0-2.1zm-29.4-11.5l-9.9-10.1 15.8-16.1 9.9 10.1-15.8 16.1zm7.3-30.5c.2-.2.4-.3.7-.3.2 0 .5.1.7.3l11.3 11.5c.4.4.4 1 0 1.4-.2.2-.4.3-.7.3-.2 0-.5-.1-.7-.3l-11.3-11.5c-.3-.3-.3-1 0-1.4zm-8.7 34.8c-.2.2-.4.3-.7.3-.2 0-.5-.1-.7-.3l-11.3-11.5c-.4-.4-.4-1 0-1.4.2-.2.4-.3.7-.3.2 0 .5.1.7.3l11.3 11.5c.4.4.4 1 0 1.4z"/><path class="st0" d="M125.6 3.2h94.3v94.3h-94.3z"/><path class="st1" d="M122.6.2v100.3h100.3V.2H122.6zm97.3 97.3h-94.3V3.2h94.3v94.3z"/><path class="st1" d="M195.6 69.2l-18.2-18.6 7.2-7.3c.3.1.6.1 1 .1 1.1 0 2.1-.4 2.8-1.2 1.5-1.6 1.5-4.1 0-5.6l-11.3-11.5c-.7-.8-1.7-1.2-2.8-1.2-1.1 0-2.1.4-2.8 1.2-1 1-1.3 2.5-1 3.8l-16.6 16.9c-.3-.1-.6-.1-1-.1-1.1 0-2.1.4-2.8 1.2-1.5 1.6-1.5 4.1 0 5.6L161.4 64c.7.8 1.7 1.2 2.8 1.2 1.1 0 2.1-.4 2.8-1.2 1-1 1.3-2.5 1-3.8l7.4-7.5 18.2 18.5c.3.3.7.4 1.1.4.4 0 .8-.1 1.1-.4.4-.4.4-1.4-.2-2zm-29.4-11.5l-9.9-10.1 15.8-16.1 9.9 10.1-15.8 16.1zm7.4-30.5c.2-.2.4-.3.7-.3.2 0 .5.1.7.3l11.3 11.5c.4.4.4 1 0 1.4-.2.2-.4.3-.7.3-.2 0-.5-.1-.7-.3l-11.3-11.5c-.4-.3-.4-1 0-1.4zM164.8 62c-.2.2-.4.3-.7.3-.2 0-.5-.1-.7-.3l-11.3-11.5c-.4-.4-.4-1 0-1.4.2-.2.4-.3.7-.3.2 0 .5.1.7.3l11.3 11.5c.4.4.4 1 0 1.4z"/><path fill="#fedb00" d="M3 3h94.3v94.3H3z"/><path class="st1" d="M0 0v100.3h100.3V0H0zm97.3 97.3H3V3h94.3v94.3z"/><path class="st1" d="M73 69L54.8 50.4l7.2-7.3c.3.1.6.1 1 .1 1.1 0 2.1-.4 2.8-1.2 1.5-1.6 1.5-4.1 0-5.6L54.5 24.9c-.7-.8-1.7-1.2-2.8-1.2-1.1 0-2.1.4-2.8 1.2-1 1-1.4 2.5-1 3.8l-16.6 17c-.3-.1-.6-.1-1-.1-1.1 0-2.1.4-2.8 1.2-1.5 1.6-1.5 4.1 0 5.6l11.3 11.5c.7.8 1.7 1.2 2.8 1.2 1.1 0 2.1-.4 2.8-1.2 1-1 1.3-2.5 1-3.8l7.4-7.5L71 71.1c.3.3.7.4 1.1.4.4 0 .8-.1 1.1-.4.4-.6.4-1.5-.2-2.1zM43.7 57.5l-9.9-10.1 15.8-16.1 9.9 10.1-15.8 16.1zM51 27c.2-.2.4-.3.7-.3.2 0 .5.1.7.3l11.3 11.5c.4.4.4 1 0 1.4-.2.2-.4.3-.7.3-.2 0-.5-.1-.7-.3L51 28.5c-.4-.4-.4-1.1 0-1.5zm-8.8 34.8c-.2.2-.4.3-.7.3-.2 0-.5-.1-.7-.3L29.6 50.3c-.4-.4-.4-1 0-1.4.2-.2.4-.3.7-.3.2 0 .5.1.7.3l11.3 11.5c.3.4.3 1-.1 1.4z"/></svg>