<svg version="1.1" id="Layer_1" xmlns="http://www.w3.org/2000/svg" x="0" y="0" viewBox="0 0 208 230" xml:space="preserve"><style>.st1{fill:#e2cc00}</style><path d="M70 59h95l-13 81.5H57L70 59z" fill="#f0f4f5"/><path class="st1" d="M148 143.5H53L66 62h95l-.1.6-12.9 80.9zm-93.8-1h92.9L159.8 63H66.9l-12.7 79.5z"/><path d="M82.6 98v4.8c.8 0 1.7 0 2.6.1.9 0 1.8.2 2.5.5.8.3 1.4.8 1.9 1.4.5.7.8 1.6.8 2.9 0 1.6-.5 2.9-1.6 3.9-1.1.9-2.4 1.4-3.9 1.4-1 0-1.9-.2-2.6-.5-.7-.4-1.3-.8-1.8-1.4-.5-.6-.8-1.3-1.1-2.1-.3-.8-.4-1.7-.4-2.6h-6.5c0 2 .2 3.7.8 5.2.6 1.5 1.5 2.8 2.5 3.8 1.1 1 2.4 1.8 3.9 2.4 1.6.5 3.3.8 5.2.8 1.6 0 3.2-.2 4.7-.7 1.5-.5 2.8-1.2 4-2.1 1.2-.9 2.1-2.1 2.7-3.5.7-1.4 1.1-2.9 1.1-4.7 0-1.9-.5-3.6-1.6-4.9-1.1-1.4-2.5-2.3-4.4-2.7v-.1c1.6-.4 2.7-1.3 3.5-2.5.8-1.2 1.2-2.7 1.2-4.3 0-1.5-.3-2.8-1-4s-1.6-2.1-2.6-2.9c-1.1-.8-2.3-1.4-3.6-1.8-1.3-.4-2.7-.6-4-.6-1.7 0-3.3.3-4.7.9-1.4.5-2.6 1.3-3.6 2.4-1 1-1.8 2.3-2.4 3.7-.5 1.4-.8 3-.9 4.7h6.5c0-1.7.4-3.2 1.2-4.3.9-1.2 2.2-1.7 3.9-1.7 1.2 0 2.4.4 3.3 1.2 1 .8 1.4 1.9 1.4 3.3 0 1-.2 1.7-.7 2.3-.4.6-1 1-1.8 1.3-.7.3-1.5.5-2.3.5-.7-.1-1.5-.1-2.2-.1zm25.2 3v-7.4h-7.5v7.4h7.5zm-7.6 9.6v7.4h7.5v-7.4h-7.5zm28.3 7.4V84.4h-5.4c-.2 1.3-.6 2.4-1.2 3.2-.6.9-1.4 1.6-2.3 2.1-.9.5-1.9.9-3 1.1-1.1.2-2.2.3-3.4.2v5.1h8.4V118h6.9z" fill="#003b4c"/><path class="st1" d="M108 143.1c0-2.2-1.8-4-4-4s-4 1.8-4 4c0 2 1.4 3.6 3.2 3.9v83.1h1.5V147c1.9-.3 3.3-1.9 3.3-3.9z"/></svg>